<svg width="205" height="37" viewBox="0 0 205 37" fill="none" xmlns="http://www.w3.org/2000/svg">
<path d="M19.6057 28.0469H8.11462V24.5023H11.3195V11.5915H8.11462V8.04688H19.6057V11.5915H16.3798V24.5023H19.6057V28.0469Z" fill="#130D0B"/>
<path d="M42.6191 28.0469H36.4413L31.0858 20.7214H28.7665V28.0469H23.7273V8.04688H32.2033C35.0814 8.04688 37.0949 8.5732 38.2335 9.61509C39.3826 10.6462 39.9624 11.9567 39.9624 13.5463C39.9624 16.2263 38.6605 18.2026 36.0618 19.4755L42.6191 28.0469ZM28.7665 11.7418V17.1124H30.3057C32.1611 17.1124 33.363 16.8492 33.9112 16.3176C34.4594 15.7912 34.7335 15.0716 34.7335 14.1693C34.7335 13.5249 34.5859 13.0254 34.2907 12.6656C33.9955 12.3111 33.5949 12.0641 33.0889 11.9352C32.5828 11.8063 31.7447 11.7418 30.5798 11.7418H28.7665Z" fill="#130D0B"/>
<path d="M55.4356 28.0469H43.9445V24.5023H47.1493V11.5915H43.9445V8.04688H55.4356V11.5915H52.2096V24.5023H55.4356V28.0469Z" fill="#130D0B"/>
<path d="M80.1146 28.0469H75.0965V14.6634L71.4488 23.3423H67.9699L64.3223 14.6634V28.0469H59.5571V8.04688H65.4397L69.8464 18.0791L74.2531 8.04688H80.1146V28.0469Z" fill="#130D0B"/>
<path d="M106.615 8.81069L99.1421 23.7856H94.8898L94.2293 13.8559L89.2339 23.7856H84.8165L84.1146 8.81069H88.2637L88.2843 19.1223L93.4449 8.81069H97.4081L97.8623 19.1223L102.569 8.81069H106.615Z" fill="#0D9F9F"/>
<path d="M118.117 18.8007H109.509V19.0419C109.509 20.7052 110.649 21.5343 112.936 21.5343C114.298 21.5343 115.702 21.1072 117.147 20.2479H117.559L116.858 23.1424C115.382 23.7755 113.772 24.0871 112.027 24.0871C110.046 24.0871 108.518 23.66 107.445 22.8007C106.382 21.9464 105.855 20.7705 105.855 19.2831C105.855 17.1675 106.557 15.4539 107.961 14.1373C109.375 12.8107 111.186 12.1474 113.39 12.1474C116.868 12.1474 118.612 13.4891 118.612 16.1675C118.612 16.9715 118.447 17.8509 118.117 18.8007ZM114.876 16.6901C114.917 16.4489 114.938 16.2378 114.938 16.0469C114.938 14.9514 114.282 14.3986 112.977 14.3986C111.475 14.3986 110.438 15.1625 109.86 16.6901H114.876Z" fill="#0D9F9F"/>
<path d="M123.377 23.2228L123.109 23.7856H119.517L123.232 8.14738H126.969L125.648 13.675C127.093 12.6851 128.398 12.1876 129.57 12.1876C130.751 12.1876 131.654 12.5293 132.274 13.2127C132.903 13.8961 133.223 14.8609 133.223 16.1072C133.223 18.1976 132.573 20.0419 131.283 21.6348C129.988 23.2177 128.393 24.0067 126.494 24.0067C125.183 24.0067 124.146 23.7454 123.377 23.2228ZM125.214 15.5243L123.872 21.1926C124.409 21.3936 124.966 21.4941 125.544 21.4941C126.7 21.4941 127.609 21.0519 128.269 20.1675C128.94 19.2831 129.281 18.1524 129.281 16.7705C129.281 15.4841 128.651 14.8408 127.402 14.8408C126.809 14.8408 126.081 15.072 125.214 15.5243Z" fill="#0D9F9F"/>
<path d="M140.857 12.4891H143.726L143.169 14.8811H140.424L138.318 23.7856H134.582L136.688 14.8811H135.098L135.655 12.4891H137.245L137.327 12.2077C137.668 10.7906 138.261 9.74538 139.103 9.07201C139.954 8.38859 141.177 8.04688 142.777 8.04688C143.861 8.04688 144.779 8.11723 145.522 8.24789L144.903 10.8007H144.635L144.119 10.68C143.747 10.5896 143.422 10.5393 143.149 10.5393C142.472 10.5393 141.977 10.67 141.662 10.9213C141.342 11.1625 141.084 11.6599 140.878 12.4087L140.857 12.4891Z" fill="#0D9F9F"/>
<path d="M148.936 24.1474C147.203 24.1474 145.871 23.7454 144.953 22.9414C144.029 22.1273 143.57 21.0067 143.57 19.5846C143.57 17.4439 144.277 15.665 145.696 14.2579C147.11 12.8509 148.957 12.1474 151.228 12.1474C152.962 12.1474 154.288 12.5494 155.212 13.3534C156.13 14.1474 156.595 15.2378 156.595 16.6298C156.595 18.7605 155.898 20.5494 154.51 21.9966C153.116 23.4338 151.259 24.1474 148.936 24.1474ZM152.714 16.7504C152.714 15.3182 152.064 14.5996 150.774 14.5996C149.767 14.5996 148.962 15.0821 148.358 16.0469C147.75 17.0017 147.45 18.1574 147.45 19.5243C147.45 20.9615 148.1 21.675 149.411 21.675C150.319 21.675 151.094 21.2328 151.744 20.3484C152.389 19.464 152.714 18.268 152.714 16.7504Z" fill="#0D9F9F"/>
<path d="M167.986 15.9464H167.655L167.263 15.866C166.943 15.8157 166.546 15.7856 166.066 15.7856C165.085 15.7856 164.146 15.9363 163.238 16.2278L161.442 23.7856H157.706L160.389 12.4891H164.126L163.733 14.1574C165.312 13.0218 166.716 12.4489 167.944 12.4489C168.275 12.4489 168.564 12.464 168.811 12.4891L167.986 15.9464Z" fill="#0D9F9F"/>
<path d="M182.185 12.4891L179.852 22.479C179.408 24.3685 178.572 25.7655 177.334 26.68C176.106 27.5896 174.367 28.0469 172.111 28.0469C170.625 28.0469 169.18 27.8861 167.777 27.5645L168.355 24.7906H168.809C170.073 25.2579 171.167 25.4941 172.091 25.4941C173.273 25.4941 174.165 25.2981 174.774 24.9112C175.394 24.5192 175.827 23.7805 176.075 22.68L176.116 22.4589C174.986 23.2378 173.856 23.6248 172.731 23.6248C171.368 23.6248 170.336 23.2931 169.634 22.6197C168.933 21.9514 168.582 21.0067 168.582 19.7856C168.582 17.5645 169.222 15.7403 170.501 14.3182C171.792 12.9011 173.355 12.1876 175.187 12.1876C176.467 12.1876 177.504 12.4589 178.304 12.9916L178.552 12.4891H182.185ZM177.829 15.1022C177.236 14.8609 176.684 14.7403 176.178 14.7403C175.048 14.7403 174.145 15.1524 173.474 15.9665C172.813 16.7856 172.483 17.8258 172.483 19.0821C172.483 20.3032 173.149 20.9112 174.485 20.9112C175.115 20.9112 175.837 20.6851 176.653 20.2278L177.829 15.1022Z" fill="#0D9F9F"/>
<path d="M195.619 18.8007H187.011V19.0419C187.011 20.7052 188.152 21.5343 190.438 21.5343C191.8 21.5343 193.204 21.1072 194.649 20.2479H195.062L194.36 23.1424C192.884 23.7755 191.274 24.0871 189.53 24.0871C187.548 24.0871 186.021 23.66 184.947 22.8007C183.884 21.9464 183.358 20.7705 183.358 19.2831C183.358 17.1675 184.06 15.4539 185.463 14.1373C186.877 12.8107 188.689 12.1474 190.892 12.1474C194.37 12.1474 196.115 13.4891 196.115 16.1675C196.115 16.9715 195.949 17.8509 195.619 18.8007ZM192.378 16.6901C192.42 16.4489 192.44 16.2378 192.44 16.0469C192.44 14.9514 191.785 14.3986 190.479 14.3986C188.978 14.3986 187.94 15.1625 187.362 16.6901H192.378Z" fill="#0D9F9F"/>
</svg>
