<svg viewBox="0 0 205 37" fill="none" xmlns="http://www.w3.org/2000/svg">
<path d="M19.6057 28.8802H8.11459V25.3356H11.3195V12.4248H8.11459V8.88021H19.6057V12.4248H16.3798V25.3356H19.6057V28.8802Z" fill="#EEEEEE"/>
<path d="M42.6191 28.8802H36.4413L31.0858 21.5548H28.7665V28.8802H23.7273V8.88021H32.2033C35.0813 8.88021 37.0949 9.40653 38.2335 10.4484C39.3826 11.4796 39.9624 12.79 39.9624 14.3797C39.9624 17.0596 38.6604 19.036 36.0618 20.3088L42.6191 28.8802ZM28.7665 12.5752V17.9457H30.3057C32.1611 17.9457 33.3629 17.6826 33.9111 17.1509C34.4593 16.6246 34.7334 15.9049 34.7334 15.0027C34.7334 14.3582 34.5858 13.8587 34.2907 13.4989C33.9955 13.1444 33.5949 12.8974 33.0888 12.7685C32.5828 12.6396 31.7447 12.5752 30.5798 12.5752H28.7665Z" fill="#EEEEEE"/>
<path d="M55.4355 28.8802H43.9444V25.3356H47.1493V12.4248H43.9444V8.88021H55.4355V12.4248H52.2096V25.3356H55.4355V28.8802Z" fill="#EEEEEE"/>
<path d="M80.1146 28.8802H75.0965V15.4968L71.4488 24.1756H67.9699L64.3222 15.4968V28.8802H59.5571V8.88021H65.4397L69.8464 18.9124L74.2531 8.88021H80.1146V28.8802Z" fill="#EEEEEE"/>
<path d="M106.614 9.64402L99.142 24.6189H94.8898L94.2292 14.6892L89.2338 24.6189H84.8164L84.1146 9.64402H88.2637L88.2843 19.9556L93.4448 9.64402H97.4081L97.8622 19.9556L102.569 9.64402H106.614Z" fill="#0D9F9F"/>
<path d="M118.117 19.634H109.509V19.8752C109.509 21.5385 110.649 22.3677 112.935 22.3677C114.298 22.3677 115.702 21.9405 117.146 21.0812H117.559L116.857 23.9757C115.382 24.6089 113.771 24.9204 112.027 24.9204C110.046 24.9204 108.518 24.4933 107.445 23.634C106.382 22.7797 105.855 21.6038 105.855 20.1164C105.855 18.0008 106.557 16.2872 107.961 14.9707C109.375 13.644 111.186 12.9807 113.39 12.9807C116.868 12.9807 118.612 14.3224 118.612 17.0008C118.612 17.8048 118.447 18.6842 118.117 19.634ZM114.876 17.5234C114.917 17.2822 114.938 17.0712 114.938 16.8802C114.938 15.7847 114.282 15.232 112.977 15.232C111.475 15.232 110.438 15.9958 109.86 17.5234H114.876Z" fill="#0D9F9F"/>
<path d="M123.377 24.0561L123.109 24.6189H119.517L123.232 8.98071H126.969L125.648 14.5083C127.093 13.5184 128.398 13.0209 129.57 13.0209C130.751 13.0209 131.654 13.3626 132.274 14.046C132.903 14.7295 133.223 15.6943 133.223 16.9405C133.223 19.031 132.573 20.8752 131.283 22.4682C129.988 24.0511 128.393 24.84 126.494 24.84C125.183 24.84 124.146 24.5787 123.377 24.0561ZM125.214 16.3576L123.872 22.0259C124.409 22.2269 124.966 22.3274 125.544 22.3274C126.7 22.3274 127.609 21.8852 128.269 21.0008C128.94 20.1164 129.281 18.9857 129.281 17.6038C129.281 16.3174 128.651 15.6742 127.402 15.6742C126.809 15.6742 126.081 15.9053 125.214 16.3576Z" fill="#0D9F9F"/>
<path d="M140.857 13.3224H143.726L143.169 15.7144H140.424L138.318 24.6189H134.582L136.688 15.7144H135.098L135.655 13.3224H137.245L137.327 13.041C137.668 11.6239 138.261 10.5787 139.103 9.90534C139.954 9.22192 141.177 8.88021 142.777 8.88021C143.861 8.88021 144.779 8.95056 145.522 9.08122L144.903 11.634H144.635L144.119 11.5134C143.747 11.4229 143.422 11.3727 143.149 11.3727C142.472 11.3727 141.977 11.5033 141.662 11.7546C141.342 11.9958 141.084 12.4933 140.878 13.242L140.857 13.3224Z" fill="#0D9F9F"/>
<path d="M148.936 24.9807C147.202 24.9807 145.871 24.5787 144.952 23.7747C144.029 22.9606 143.569 21.84 143.569 20.4179C143.569 18.2772 144.276 16.4983 145.696 15.0913C147.11 13.6842 148.957 12.9807 151.228 12.9807C152.962 12.9807 154.288 13.3827 155.212 14.1867C156.13 14.9807 156.595 16.0712 156.595 17.4631C156.595 19.5938 155.898 21.3827 154.51 22.83C153.116 24.2671 151.259 24.9807 148.936 24.9807ZM152.714 17.5837C152.714 16.1516 152.064 15.433 150.774 15.433C149.767 15.433 148.962 15.9154 148.358 16.8802C147.749 17.835 147.45 18.9908 147.45 20.3576C147.45 21.7948 148.1 22.5084 149.411 22.5084C150.319 22.5084 151.094 22.0661 151.744 21.1817C152.389 20.2973 152.714 19.1013 152.714 17.5837Z" fill="#0D9F9F"/>
<path d="M167.986 16.7797H167.655L167.263 16.6993C166.943 16.6491 166.546 16.6189 166.066 16.6189C165.085 16.6189 164.146 16.7697 163.238 17.0611L161.442 24.6189H157.706L160.389 13.3224H164.125L163.733 14.9908C165.312 13.8551 166.716 13.2822 167.944 13.2822C168.275 13.2822 168.564 13.2973 168.811 13.3224L167.986 16.7797Z" fill="#0D9F9F"/>
<path d="M182.185 13.3224L179.852 23.3124C179.408 25.2018 178.572 26.5988 177.334 27.5134C176.106 28.4229 174.367 28.8802 172.111 28.8802C170.625 28.8802 169.18 28.7194 167.777 28.3978L168.355 25.6239H168.809C170.073 26.0913 171.167 26.3274 172.091 26.3274C173.273 26.3274 174.165 26.1315 174.774 25.7445C175.394 25.3526 175.827 24.6139 176.075 23.5134L176.116 23.2923C174.986 24.0712 173.856 24.4581 172.731 24.4581C171.368 24.4581 170.336 24.1264 169.634 23.4531C168.933 22.7847 168.582 21.84 168.582 20.6189C168.582 18.3978 169.222 16.5737 170.501 15.1516C171.791 13.7345 173.355 13.0209 175.187 13.0209C176.467 13.0209 177.504 13.2923 178.304 13.8249L178.552 13.3224H182.185ZM177.829 15.9355C177.236 15.6943 176.684 15.5737 176.178 15.5737C175.048 15.5737 174.145 15.9857 173.474 16.7998C172.813 17.6189 172.483 18.6591 172.483 19.9154C172.483 21.1365 173.149 21.7445 174.485 21.7445C175.115 21.7445 175.837 21.5184 176.653 21.0611L177.829 15.9355Z" fill="#0D9F9F"/>
<path d="M195.619 19.634H187.011V19.8752C187.011 21.5385 188.152 22.3677 190.438 22.3677C191.8 22.3677 193.204 21.9405 194.649 21.0812H195.062L194.36 23.9757C192.884 24.6089 191.274 24.9204 189.53 24.9204C187.548 24.9204 186.021 24.4933 184.947 23.634C183.884 22.7797 183.358 21.6038 183.358 20.1164C183.358 18.0008 184.06 16.2872 185.463 14.9707C186.877 13.644 188.689 12.9807 190.892 12.9807C194.37 12.9807 196.115 14.3224 196.115 17.0008C196.115 17.8048 195.949 18.6842 195.619 19.634ZM192.378 17.5234C192.42 17.2822 192.44 17.0712 192.44 16.8802C192.44 15.7847 191.785 15.232 190.479 15.232C188.978 15.232 187.94 15.9958 187.362 17.5234H192.378Z" fill="#0D9F9F"/>
</svg>
