<svg width="124" height="124" viewBox="0 0 124 124" fill="none" xmlns="http://www.w3.org/2000/svg">
<mask id="mask0_27_9" style="mask-type:luminance" maskUnits="userSpaceOnUse" x="8" y="38" width="108" height="48">
<path d="M8 38H116V86H8V38Z" fill="white"/>
</mask>
<g mask="url(#mask0_27_9)">
<path fill-rule="evenodd" clip-rule="evenodd" d="M36.4866 84.6204C40.3136 84.537 44.1356 83.625 47.5759 81.8843L45.9788 79.1898C42.9855 80.6806 39.7059 81.4676 36.3761 81.5509L36.4866 84.6204ZM31.0675 85.4491C32.1272 85.6759 33.2271 85.8194 34.3069 85.8426L34.3521 83.8935C33.4079 83.8704 32.4637 83.75 31.5396 83.5602L31.0675 85.4491ZM14.8354 73.8009C15.8248 75.2917 17.0151 76.6991 18.4113 77.9861C21.4247 80.7639 25.0006 82.6713 28.8225 83.7083L29.7667 80.7639C26.4621 79.8704 23.3583 78.213 20.7718 75.8287C19.5564 74.713 18.5218 73.5093 17.668 72.2222L14.8354 73.8009ZM10.9682 69.838C11.3047 70.9167 11.7768 71.9537 12.3594 72.9722L14.4537 71.9352C13.9364 71.0648 13.5296 70.1528 13.2383 69.2407L10.9682 69.838ZM11.8873 56.6574C11.4403 58.3981 11.2143 60.1806 11.2143 61.9444C11.2143 63.7269 11.4403 65.4861 11.8873 67.2269L15.1267 66.5231C14.745 65.0324 14.5441 63.4769 14.5441 61.9444C14.5441 60.4074 14.745 58.875 15.1267 57.3611L11.8873 56.6574ZM13.2584 50.9167C12.6557 51.9537 12.1585 53.0509 11.7969 54.1713L14.1825 54.8148C14.4989 53.838 14.9258 52.9074 15.4431 51.9954L13.2584 50.9167ZM22.3689 41.6898C20.7467 42.6019 19.2199 43.7037 17.8237 44.9861C16.4325 46.2731 15.2372 47.6806 14.2478 49.1759L17.0854 50.7685C17.9392 49.4861 18.9738 48.2639 20.1842 47.162C21.3996 46.0463 22.7054 45.0926 24.0965 44.3056L22.3689 41.6898ZM35.1858 39.2685C31.3638 39.3519 27.5368 40.2639 24.0965 42.0046L25.6936 44.6991C28.6869 43.2037 31.9665 42.4167 35.2963 42.3333L35.1858 39.2685ZM40.5145 40.3657C39.5251 40.1389 38.5106 40.0324 37.5011 39.9907L37.4559 41.7963C38.3348 41.8148 39.2087 41.9213 40.0625 42.1065L40.5145 40.3657ZM58.861 51.0833L53.2411 45.8981C50.2277 43.1204 46.6518 41.2176 42.8298 40.1806L41.8856 43.1204C45.1903 44.0139 48.2941 45.6713 50.8806 48.0556L56.5006 53.2361L58.861 51.0833ZM61.8996 53.8796L61.1763 53.2176L59.4035 51.5787L57.043 53.7546L59.514 56.037L68.2829 64.1204L76.6501 71.8287L79.0558 69.7176L71.1858 62.4398L70.6434 61.9444L69.4732 60.8657L68.308 59.787L67.4492 59L64.2349 56.037L61.8996 53.8796ZM41.5491 79.7083C44.6529 78.8565 47.596 77.3009 50.0469 75.0417L57.8717 67.8287L55.5363 65.6759L47.6864 72.8657C45.6423 74.7546 43.1914 76.0602 40.6049 76.7639L41.5491 79.7083ZM31.1378 79.9537C34.2165 80.6389 37.4308 80.6389 40.5145 79.9537L39.7511 76.9722C37.1847 77.5278 34.4877 77.5278 31.9263 76.9722L31.1378 79.9537ZM26.236 78.213C27.4715 78.838 28.7773 79.3333 30.1032 79.6852L31.0474 76.7407C29.9475 76.4306 28.8426 76.037 27.808 75.5185L26.236 78.213ZM23.3131 75.4167C23.8052 75.8519 24.3477 76.2222 24.9102 76.5556L25.7388 75.2917C25.2667 75.0231 24.8198 74.713 24.3929 74.338L23.3131 75.4167ZM18.7026 71.6204C19.4208 72.6991 20.2746 73.7361 21.264 74.6898L23.6696 72.5741C22.861 71.787 22.1429 70.9167 21.5352 70.0278L18.7026 71.6204ZM15.7344 62.4398C15.8248 65.3194 16.6334 68.1806 18.1652 70.7917L21.0882 69.3241C19.8025 67.1435 19.1295 64.7639 19.0642 62.3565L15.7344 62.4398ZM16.7891 58.4815C16.5882 59.25 16.4777 60.037 16.4526 60.8426L18.5017 60.8843C18.5218 60.2222 18.6122 59.5602 18.7679 58.9167L16.7891 58.4815ZM21.2439 49.1944C18.9939 51.3935 17.4219 53.963 16.5681 56.6759L19.7573 57.5509C20.4805 55.287 21.7812 53.1343 23.6696 51.3102L21.2439 49.1944ZM28.5965 45.5463C26.889 46.0046 25.2667 46.8519 23.8956 48.0556L25.2215 49.3426C26.3717 48.3472 27.7176 47.6389 29.159 47.2454L28.5965 45.5463ZM34.4877 44.1157C33.654 44.1389 32.8002 44.2407 31.9916 44.4259L32.4637 46.213C33.1367 46.0648 33.8599 45.9815 34.553 45.963L34.4877 44.1157ZM45.4163 45.6528C42.5837 44.2407 39.4799 43.4954 36.356 43.4352L36.2656 46.5C38.8722 46.5648 41.4587 47.1852 43.8192 48.3657L45.4163 45.6528ZM64.4609 66.4815L73.7271 75.0231C74.8722 76.0787 76.1077 76.9722 77.4336 77.7176L79.1663 75.1065C78.0664 74.4815 77.0318 73.7361 76.0876 72.8472L66.8214 64.3056L64.4609 66.4815ZM61.8996 59.7685L50.0268 48.8241C48.8767 47.7639 47.6412 46.875 46.3153 46.1296L44.5826 48.7407C45.6875 49.3611 46.7171 50.1065 47.6663 51L56.3198 58.9769L58.6802 61.1574L59.534 61.9444L61.8996 64.1204L63.9235 65.9861L66.284 63.8102L61.8996 59.7685ZM47.1239 71.8287L54.6574 64.8843L52.2969 62.7083L44.7182 69.6944L47.1239 71.8287ZM41.3432 74.5648C42.6942 74.1944 43.9749 73.5278 45.0547 72.5741L43.7087 71.2685C42.8499 72.0185 41.8404 72.5324 40.7857 72.8241L41.3432 74.5648ZM32.1925 75.8935C33.3878 76.162 34.5982 76.287 35.8136 76.287C37.029 76.287 38.2444 76.162 39.4347 75.8935L38.6713 72.9074C37.7271 73.1157 36.7829 73.2176 35.8136 73.2176C34.8493 73.2176 33.9051 73.1157 32.9559 72.9074L32.1925 75.8935ZM29.0887 74.2778C29.7215 74.588 30.3493 74.8333 31.0223 75.0231L31.63 73.1343C31.1127 72.9907 30.5954 72.8056 30.1032 72.5556L29.0887 74.2778ZM20.8823 66.0278C21.6055 68.2454 22.9062 70.338 24.7946 72.0972C25.6735 72.9074 26.6378 73.6111 27.6724 74.1944L29.4051 71.5833C28.5965 71.125 27.8532 70.588 27.1551 69.9444C25.6484 68.5556 24.639 66.9167 24.0765 65.1759L20.8823 66.0278ZM21.2187 59.8889C21.043 60.5556 20.9526 61.2593 20.9526 61.9444C20.9526 62.625 21.043 63.3102 21.2187 63.9954L23.1975 63.5602C23.067 63.0185 22.9967 62.4815 22.9967 61.9444C22.9967 61.4028 23.067 60.8657 23.1975 60.3241L21.2187 59.8889ZM24.5285 52.0556C22.7706 53.7546 21.5603 55.7454 20.8823 57.8611L24.0765 58.7315C24.6138 57.0741 25.558 55.4954 26.9342 54.1713L24.5285 52.0556ZM27.4967 50.625C26.9994 50.9167 26.5273 51.2454 26.0753 51.6204L27.3359 52.8426C27.6724 52.5324 28.0541 52.2824 28.4408 52.0556L27.4967 50.625ZM35.4068 47.5787C32.981 47.6389 30.5753 48.2222 28.3956 49.3009L29.9877 51.9954C31.7003 51.125 33.6088 50.6898 35.4972 50.625L35.4068 47.5787ZM46.5413 51.5185C43.6384 48.9861 39.952 47.6806 36.2405 47.5787L36.1501 50.6481C39.0731 50.7083 41.976 51.7454 44.2461 53.7361L46.5413 51.5185ZM56.6814 60.8657L47.1239 52.0556L44.7182 54.1713L52.6133 61.4444L53.1507 61.9444L54.3209 63.0185L56.6814 60.8657ZM61.8996 65.6759L61.0407 64.8843L58.7054 62.7083L57.2439 61.3611L54.8834 63.537L56.3449 64.8843L58.7054 67.0648L70.5982 78.0278C73.6116 80.8056 77.1875 82.713 81.0095 83.75L81.9537 80.8056C78.649 79.912 75.5452 78.2546 72.9587 75.8704L61.8996 65.6759ZM10.1345 48.5926C9.81808 49.1111 9.57199 49.6713 9.39118 50.2315L10.5865 50.5648C10.7422 50.0648 10.9431 49.6111 11.2143 49.1528L10.1345 48.5926ZM16.2266 80.4954C16.6987 80.9074 17.1959 81.2593 17.7333 81.5509L18.5218 80.3704C18.0748 80.1204 17.668 79.8287 17.2612 79.4769L16.2266 80.4954ZM8.62779 55.9722C8.3365 56.7407 8.11049 57.5278 8 58.338L9.6875 58.5648C9.79799 57.8796 9.97879 57.1944 10.25 56.5139L8.62779 55.9722ZM75.0982 42.6019C73.476 43.5139 71.9492 44.6157 70.553 45.8981L62.7282 53.1111L65.0887 55.287L72.9135 48.0741C74.1289 46.9583 75.4347 46.0046 76.8259 45.2176L75.0982 42.6019ZM87.3075 39.2685C83.4855 39.3519 79.6635 40.2639 76.2232 42.0046L77.8153 44.6991C80.8086 43.2037 84.0932 42.4167 87.418 42.3333L87.3075 39.2685ZM92.7266 38.4398C91.6669 38.2083 90.567 38.0648 89.4872 38.0463L89.442 39.9907C90.3862 40.0139 91.3304 40.1389 92.2545 40.3241L92.7266 38.4398ZM108.939 50.0648C107.949 48.5741 106.754 47.162 105.363 45.8796C102.349 43.1019 98.7734 41.1944 94.9514 40.1574L94.0073 43.1019C97.3119 43.9907 100.416 45.6528 103.002 48.0324C104.218 49.1528 105.252 50.3565 106.106 51.6435L108.939 50.0648ZM112.826 54.0231C112.489 52.9491 112.017 51.912 111.435 50.8935L109.34 51.9306C109.858 52.8009 110.265 53.713 110.556 54.625L112.826 54.0231ZM111.907 67.2269C112.354 65.4861 112.58 63.7037 112.58 61.9444C112.58 60.162 112.354 58.3981 111.907 56.6574L108.667 57.3611C109.049 58.8565 109.25 60.4074 109.25 61.9444C109.25 63.4769 109.049 65.0093 108.667 66.5231L111.907 67.2269ZM110.536 72.9722C111.143 71.9352 111.636 70.8333 111.997 69.7176L109.612 69.0741C109.295 70.0463 108.868 70.9815 108.351 71.8935L110.536 72.9722ZM101.405 82.1944C103.022 81.2824 104.554 80.1852 105.945 78.8981C107.342 77.6111 108.532 76.2037 109.521 74.713L106.689 73.1157C105.835 74.3981 104.8 75.625 103.585 76.7222C102.369 77.8426 101.069 78.7963 99.6724 79.5833L101.405 82.1944ZM88.6083 84.6204C92.4353 84.537 96.2573 83.625 99.6975 81.8843L98.1004 79.1898C95.1071 80.6806 91.8276 81.4676 88.4978 81.5509L88.6083 84.6204ZM83.2796 83.5185C84.269 83.75 85.2835 83.8519 86.293 83.8935L86.3382 82.088C85.4643 82.0694 84.5854 81.9676 83.7316 81.7778L83.2796 83.5185ZM82.245 44.1806C79.1462 45.0278 76.1981 46.5833 73.7472 48.8426L65.9224 56.0556L68.2628 58.213L76.0876 51C78.1317 49.1111 80.5826 47.8056 83.1691 47.1019L82.245 44.1806ZM92.6362 43.9306C89.5525 43.2454 86.3382 43.2454 83.2595 43.9306L84.0229 46.9167C86.5843 46.3565 89.2863 46.3565 91.8477 46.9167L92.6362 43.9306ZM97.5379 45.6528C96.3025 45.0278 94.9967 44.5324 93.6708 44.1806L92.7266 47.1204C93.8264 47.4352 94.9314 47.8287 95.9609 48.3472L97.5379 45.6528ZM100.481 48.4722C99.9888 48.0324 99.4464 47.662 98.8839 47.3287L98.0552 48.5926C98.5273 48.8657 98.9743 49.1759 99.4012 49.5463L100.481 48.4722ZM105.092 52.2639C104.373 51.1852 103.52 50.1481 102.53 49.1944L100.124 51.3102C100.933 52.0972 101.651 52.9676 102.259 53.8611L105.092 52.2639ZM108.04 61.4444C107.949 58.5648 107.141 55.7037 105.609 53.0926L102.686 54.5648C103.967 56.7407 104.645 59.125 104.71 61.5278L108.04 61.4444ZM107.005 65.4028C107.206 64.6389 107.316 63.8519 107.342 63.0417L105.292 63C105.272 63.662 105.182 64.3287 105.026 64.9676L107.005 65.4028ZM102.53 74.6898C104.78 72.4954 106.352 69.9213 107.206 67.2083L104.012 66.338C103.294 68.5972 101.988 70.75 100.099 72.5741L102.53 74.6898ZM95.1775 78.3194C96.885 77.8611 98.5022 77.0139 99.8733 75.8102L98.5474 74.5231C97.4023 75.5185 96.0513 76.2222 94.615 76.6157L95.1775 78.3194ZM89.3064 79.7685C90.1401 79.75 90.9939 79.6435 91.8025 79.4583L91.3304 77.6759C90.6574 77.8194 89.9392 77.9028 89.2411 77.9259L89.3064 79.7685ZM78.3778 78.213C81.1903 79.625 84.3142 80.3704 87.4431 80.4537L87.5335 77.3843C84.9219 77.3241 82.3354 76.6991 79.9749 75.5185L78.3778 78.213ZM76.6501 52.0556L69.1166 59L71.4771 61.1759L79.0558 54.1898L76.6501 52.0556ZM82.4258 49.3194C81.0798 49.6944 79.7941 50.3565 78.7143 51.3102L80.0653 52.6157C80.9191 51.8704 81.9336 51.3519 82.9883 51.0602L82.4258 49.3194ZM91.5764 47.9722C90.3862 47.7037 89.1708 47.5787 87.9604 47.5787C86.745 47.5787 85.5296 47.7037 84.3393 47.9722L85.1027 50.9583C86.0469 50.75 86.9911 50.6481 87.9604 50.6481C88.9247 50.6481 89.8689 50.75 90.8131 50.9583L91.5764 47.9722ZM94.6802 49.588C94.0525 49.2778 93.4247 49.0278 92.7467 48.8426L92.1389 50.7315C92.6562 50.875 93.1735 51.0602 93.6708 51.3102L94.6802 49.588ZM102.887 57.8611C102.169 55.6435 100.863 53.5463 98.9743 51.787C98.1004 50.9769 97.1311 50.2731 96.0965 49.6944L94.3689 52.3056C95.1775 52.7593 95.9208 53.3009 96.6138 53.9398C98.1205 55.3287 99.135 56.9676 99.6975 58.7083L102.887 57.8611ZM102.55 63.9954C102.731 63.3333 102.821 62.625 102.821 61.9444C102.821 61.2593 102.731 60.5741 102.55 59.8889L100.571 60.3241C100.707 60.8657 100.777 61.4028 100.777 61.9444C100.777 62.4815 100.707 63.0185 100.571 63.5602L102.55 63.9954ZM99.2455 71.8102C100.998 70.1111 102.214 68.1204 102.887 66.0046L99.6975 65.1343C99.1551 66.7917 98.2109 68.3704 96.8398 69.6944L99.2455 71.8102ZM96.2773 73.2593C96.7746 72.9722 97.2466 72.6389 97.6936 72.2639L96.433 71.0417C96.0965 71.3519 95.7148 71.6019 95.3331 71.8287L96.2773 73.2593ZM88.3622 76.287C90.793 76.2222 93.1987 75.6435 95.3783 74.5648L93.7812 71.8704C92.0737 72.7407 90.1602 73.1759 88.2718 73.2407L88.3622 76.287ZM77.2327 72.3472C80.1356 74.875 83.822 76.1806 87.5335 76.287L87.6189 73.2176C84.6959 73.1574 81.798 72.1204 79.5279 70.1296L77.2327 72.3472ZM113.66 75.2917C113.976 74.7731 114.222 74.213 114.403 73.6528L113.208 73.3241C113.052 73.8194 112.851 74.2778 112.58 74.7315L113.66 75.2917ZM107.542 43.3935C107.07 42.9769 106.578 42.625 106.036 42.3333L105.252 43.5139C105.699 43.7639 106.106 44.0556 106.508 44.4074L107.542 43.3935ZM115.141 67.912C115.458 67.1435 115.658 66.3565 115.774 65.5509L114.086 65.3194C113.976 66.0046 113.795 66.6898 113.524 67.375L115.141 67.912ZM48.6959 81.2824C50.3181 80.3704 51.8449 79.2731 53.2411 77.9861L61.0658 70.7731L58.7054 68.5972L50.8806 75.8102C49.6652 76.9306 48.3594 77.8843 46.9682 78.6713L48.6959 81.2824Z" fill="#0D9F9F"/>
</g>
</svg>
